TITLE ""
FILE "1Q_t_0459-0468.mp3" MP3
  TRACK 01 AUDIO
    TITLE "1Q_t_0459-0468_01"
    INDEX 01 00:00:00
  TRACK 02 AUDIO
    TITLE "1Q_t_0459-0468_02"
    INDEX 01 00:01:18
  TRACK 03 AUDIO
    TITLE "1Q_t_0459-0468_03"
    INDEX 01 00:01:33
  TRACK 04 AUDIO
    TITLE "1Q_t_0459-0468_04"
    INDEX 01 00:04:24
  TRACK 05 AUDIO
    TITLE "1Q_t_0459-0468_05"
    INDEX 01 00:04:39
  TRACK 06 AUDIO
    TITLE "1Q_t_0459-0468_06"
    INDEX 01 00:09:46
  TRACK 07 AUDIO
    TITLE "1Q_t_0459-0468_07"
    INDEX 01 00:10:28
  TRACK 08 AUDIO
    TITLE "1Q_t_0459-0468_08"
    INDEX 01 00:11:43
  TRACK 09 AUDIO
    TITLE "1Q_t_0459-0468_09"
    INDEX 01 00:11:61
  TRACK 10 AUDIO
    TITLE "1Q_t_0459-0468_10"
    INDEX 01 00:13:44
  TRACK 11 AUDIO
    TITLE "1Q_t_0459-0468_11"
    INDEX 01 00:13:58
  TRACK 12 AUDIO
    TITLE "1Q_t_0459-0468_12"
    INDEX 01 00:19:37
  TRACK 13 AUDIO
    TITLE "1Q_t_0459-0468_13"
    INDEX 01 00:20:15
  TRACK 14 AUDIO
    TITLE "1Q_t_0459-0468_14"
    INDEX 01 00:21:48
  TRACK 15 AUDIO
    TITLE "1Q_t_0459-0468_15"
    INDEX 01 00:21:63
  TRACK 16 AUDIO
    TITLE "1Q_t_0459-0468_16"
    INDEX 01 00:24:54
  TRACK 17 AUDIO
    TITLE "1Q_t_0459-0468_17"
    INDEX 01 00:24:68
  TRACK 18 AUDIO
    TITLE "1Q_t_0459-0468_18"
    INDEX 01 00:30:39
  TRACK 19 AUDIO
    TITLE "1Q_t_0459-0468_19"
    INDEX 01 00:31:19
  TRACK 20 AUDIO
    TITLE "1Q_t_0459-0468_20"
    INDEX 01 00:32:51
  TRACK 21 AUDIO
    TITLE "1Q_t_0459-0468_21"
    INDEX 01 00:32:67
  TRACK 22 AUDIO
    TITLE "1Q_t_0459-0468_22"
    INDEX 01 00:35:18
  TRACK 23 AUDIO
    TITLE "1Q_t_0459-0468_23"
    INDEX 01 00:35:34
  TRACK 24 AUDIO
    TITLE "1Q_t_0459-0468_24"
    INDEX 01 00:43:32
  TRACK 25 AUDIO
    TITLE "1Q_t_0459-0468_25"
    INDEX 01 00:44:10
  TRACK 26 AUDIO
    TITLE "1Q_t_0459-0468_26"
    INDEX 01 00:45:19
  TRACK 27 AUDIO
    TITLE "1Q_t_0459-0468_27"
    INDEX 01 00:45:34
  TRACK 28 AUDIO
    TITLE "1Q_t_0459-0468_28"
    INDEX 01 00:46:38
  TRACK 29 AUDIO
    TITLE "1Q_t_0459-0468_29"
    INDEX 01 00:46:54
  TRACK 30 AUDIO
    TITLE "1Q_t_0459-0468_30"
    INDEX 01 00:51:35
  TRACK 31 AUDIO
    TITLE "1Q_t_0459-0468_31"
    INDEX 01 00:52:13
  TRACK 32 AUDIO
    TITLE "1Q_t_0459-0468_32"
    INDEX 01 00:53:42
  TRACK 33 AUDIO
    TITLE "1Q_t_0459-0468_33"
    INDEX 01 00:53:57
  TRACK 34 AUDIO
    TITLE "1Q_t_0459-0468_34"
    INDEX 01 00:54:63
  TRACK 35 AUDIO
    TITLE "1Q_t_0459-0468_35"
    INDEX 01 00:55:03
  TRACK 36 AUDIO
    TITLE "1Q_t_0459-0468_36"
    INDEX 01 01:02:15
  TRACK 37 AUDIO
    TITLE "1Q_t_0459-0468_37"
    INDEX 01 01:02:68
  TRACK 38 AUDIO
    TITLE "1Q_t_0459-0468_38"
    INDEX 01 01:03:72
  TRACK 39 AUDIO
    TITLE "1Q_t_0459-0468_39"
    INDEX 01 01:04:18
  TRACK 40 AUDIO
    TITLE "1Q_t_0459-0468_40"
    INDEX 01 01:06:21
  TRACK 41 AUDIO
    TITLE "1Q_t_0459-0468_41"
    INDEX 01 01:06:35
  TRACK 42 AUDIO
    TITLE "1Q_t_0459-0468_42"
    INDEX 01 01:12:67
  TRACK 43 AUDIO
    TITLE "1Q_t_0459-0468_43"
    INDEX 01 01:13:45
  TRACK 44 AUDIO
    TITLE "1Q_t_0459-0468_44"
    INDEX 01 01:15:06
  TRACK 45 AUDIO
    TITLE "1Q_t_0459-0468_45"
    INDEX 01 01:15:22
  TRACK 46 AUDIO
    TITLE "1Q_t_0459-0468_46"
    INDEX 01 01:17:09
  TRACK 47 AUDIO
    TITLE "1Q_t_0459-0468_47"
    INDEX 01 01:17:27
  TRACK 48 AUDIO
    TITLE "1Q_t_0459-0468_48"
    INDEX 01 01:24:33
  TRACK 49 AUDIO
    TITLE "1Q_t_0459-0468_49"
    INDEX 01 01:25:10
  TRACK 50 AUDIO
    TITLE "1Q_t_0459-0468_50"
    INDEX 01 01:26:26
  TRACK 51 AUDIO
    TITLE "1Q_t_0459-0468_51"
    INDEX 01 01:26:41
  TRACK 52 AUDIO
    TITLE "1Q_t_0459-0468_52"
    INDEX 01 01:29:45
  TRACK 53 AUDIO
    TITLE "1Q_t_0459-0468_53"
    INDEX 01 01:29:59
  TRACK 54 AUDIO
    TITLE "1Q_t_0459-0468_54"
    INDEX 01 01:36:20
  TRACK 55 AUDIO
    TITLE "1Q_t_0459-0468_55"
    INDEX 01 01:36:73
  TRACK 56 AUDIO
    TITLE "1Q_t_0459-0468_56"
    INDEX 01 01:38:05
  TRACK 57 AUDIO
    TITLE "1Q_t_0459-0468_57"
    INDEX 01 01:38:21
  TRACK 58 AUDIO
    TITLE "1Q_t_0459-0468_58"
    INDEX 01 01:39:36
  TRACK 59 AUDIO
    TITLE "1Q_t_0459-0468_59"
    INDEX 01 01:39:52
  TRACK 60 AUDIO
    TITLE "1Q_t_0459-0468_60"
    INDEX 01 01:45:45
